<svg width="16" height="16" viewBox="0 0 16 16" fill="none" xmlns="http://www.w3.org/2000/svg">
<g opacity="0.6">
<path fill-rule="evenodd" clip-rule="evenodd" d="M9.53539 4.63876L9.99706 4.07055C10.1748 3.85178 10.4843 3.82585 10.6986 3.99999C10.9067 4.16903 10.9463 4.48804 10.7732 4.70114L4.90019 11.9294C4.72244 12.1482 4.41294 12.1741 4.19862 12C3.99057 11.8309 3.95093 11.5119 4.12407 11.2988L4.53713 10.7905C2.49619 9.94878 1.24383 8.65831 1.24383 8.65831C0.832937 8.29473 0.821607 7.70158 1.24383 7.34167C1.24383 7.34167 4.00158 4.49999 8.00158 4.49999C8.5363 4.49999 9.04878 4.55077 9.53539 4.63876ZM11.4095 5.18668C13.4826 6.02763 14.7565 7.34167 14.7565 7.34167C15.167 7.70525 15.1784 8.2984 14.7565 8.65831C14.7565 8.65831 12.0016 11.5 8.00158 11.5C7.43178 11.5 6.88718 11.4423 6.37218 11.3434L7.17594 10.361C7.43392 10.4511 7.71117 10.5 7.99984 10.5C9.38056 10.5 10.4998 9.3807 10.4998 7.99999C10.4998 7.53432 10.3725 7.09839 10.1508 6.7251L11.4095 5.18668ZM7.88404 9.49558L9.44314 7.59003C9.48007 7.72033 9.49984 7.85785 9.49984 7.99999C9.49984 8.82842 8.82827 9.49999 7.99984 9.49999C7.96088 9.49999 7.92226 9.4985 7.88404 9.49558Z" fill="#333333"/>
</g>
</svg>
